<?xml version="1.0" encoding="UTF-8"?>
<svg id="Layer_1" xmlns="http://www.w3.org/2000/svg" version="1.1" viewBox="0 0 866.53 476.61">
  <!-- Generator: Adobe Illustrator 29.2.0, SVG Export Plug-In . SVG Version: 2.1.0 Build 108)  -->
  <defs>
    <style>
      .st0 {
        fill: #221f1f;
      }

      .st1 {
        fill: #231f20;
      }

      .st2 {
        isolation: isolate;
      }

      .st3 {
        fill: #010101;
      }
    </style>
  </defs>
  <g class="st2">
    <path class="st0" d="M363.85,191.62l-4.12.07c-.07,4.75-.11,8.69-.11,8.69.48.37,1.11.63,1.81.77-.22,1.14-.63,1.43-.84,1.43-1.29,0-3.09-1.07-3.09-2.1,0-6.92.11-20.87.11-20.87-.63-.04-1.47-.18-1.99-.37,0-1.14.26-1.47.7-1.47h8.91c2.03,0,2.8.18,2.8.99,0,.29-.07.88-.14,1.03-.66-.07-1.29-.11-3.02-.11h-5.04c0,2.72-.04,6.48-.07,10.05h7.51c.07.29.11.66.11.92,0,.74-.29.92-3.5.96h-.01,0Z"/>
    <path class="st0" d="M371.25,200.49c0-6.92.11-22.27.11-22.27-.33-.22-1.43-.66-1.95-.77.18-1.14.59-1.43.81-1.43,1.4,0,3.24,1.07,3.24,2.1,0,6.85-.18,22.27-.18,22.27.33.22,1.43.66,1.95.77-.18,1.14-.59,1.43-.81,1.43-1.4,0-3.17-1.07-3.17-2.1Z"/>
    <path class="st0" d="M389.47,196.52c-.52,3.24-3.5,6.08-5.59,6.08-3.24,0-6.04-2.21-6.04-5.3,0-4.12.04-5.34.22-6.63.52-3.21,3.5-6.08,5.59-6.08,3.21,0,6.11,2.21,6.11,5.3,0,4.12-.07,5.34-.29,6.63ZM385.24,200.89c1.29-1.33,2.43-3.39,2.43-7.51v-4.3c-.77-1.69-2.65-2.8-4.82-2.8-.22,0-.41,0-.63.04-1.25,1.29-2.35,3.39-2.35,7.47v4.3c.74,1.73,2.65,2.8,4.82,2.8h.56Z"/>
    <path class="st0" d="M414.06,194.01c-.18,5.85-2.43,8.58-4.64,8.58-1.62,0-3.5-.63-4.79-1.77-.84.81-2.43,1.77-4.6,1.77-3.5,0-6.22-2.1-6.22-5.52,0-6.96.07-10.23.07-10.23-.33-.26-1.47-.7-1.99-.81.22-1.11.63-1.43.84-1.43,1.4,0,3.24,1.07,3.24,2.1,0,6.88-.14,10.68-.14,10.68.74,2.17,2.39,3.5,4.86,3.5,1.36,0,2.51-.52,3.09-.96-.55-.77-.92-1.73-.92-2.83,0-6.96.07-10.34.07-10.34-.22-.26-1.18-.66-1.62-.77.22-1.14.63-1.36.84-1.36,1.4,0,2.87,1.07,2.87,2.1,0,6.88-.14,10.68-.14,10.68.74,2.06,2.94,3.5,5.04,3.5h.66c.7-1.47,1.4-3.17,1.4-8.84v-5.3c-.22-.26-1.14-.66-1.58-.77.18-1.14.59-1.36.81-1.36,1.4,0,2.87,1.07,2.87,2.1,0,0,0,4.82-.04,7.33v-.03h0Z"/>
    <path class="st0" d="M417.67,198.54c0-4.49,0-5.74.18-7.95.44-4.57,3.24-6,4.42-6,2.21,0,5.59,2.65,5.59,5.89,0,2.28-4.64,3.17-8.14,3.24v.44l-.04,4.68c1.62,1.47,3.87,2.1,6.85,2.28,0,1.11-.22,1.69-1.11,1.69-3.46,0-7.76-1.58-7.76-4.27h0ZM421.28,186.14c-.63.81-1.33,2.39-1.51,6.11,2.24-.18,5-.59,6.08-1.4-.11-2.72-2.72-4.71-4.34-4.71h-.22Z"/>
    <path class="st0" d="M434.93,186.36c-.48,0-.96.11-1.36.26v.07c0,6.88-.14,13.7-.14,13.7.29.22,1.43.66,1.95.77-.22,1.14-.63,1.43-.81,1.43-1.44,0-3.17-1.07-3.17-2.1,0-6.92.07-13.66.07-13.66-.33-.26-1.47-.7-1.99-.81.22-1.11.63-1.43.84-1.43.96,0,2.13.52,2.76,1.18.63-.63,1.84-1.18,2.91-1.18,1.58,0,2.43.74,2.43,1.69,0,.48-.18.77-.66,1.11-1.03-.81-1.65-1.03-2.83-1.03h0Z"/>
    <path class="st0" d="M459.77,181.64c-1.18-1.25-3.17-2.24-6.18-2.39-1.99,1.03-4.53,3.83-4.57,11.22l-.04,6.74c1.69,2.21,4.45,3.64,10.64,3.64,0,.99,0,1.95-1.88,1.95-6.63,0-10.97-2.91-10.97-6.11,0-5.78.04-8.69.26-10.45.84-5.82,4.93-8.87,7.4-8.87,4.01,0,6.22,1.62,6.22,2.8,0,.63-.41,1.14-.88,1.47h0Z"/>
    <path class="st0" d="M463.71,200.49c0-6.92.11-22.27.11-22.27-.33-.22-1.43-.66-1.95-.77.18-1.14.59-1.43.81-1.43,1.4,0,3.24,1.07,3.24,2.1,0,6.85-.18,22.27-.18,22.27.33.22,1.43.66,1.95.77-.18,1.14-.59,1.43-.81,1.43-1.4,0-3.17-1.07-3.17-2.1h0Z"/>
    <path class="st0" d="M484.25,202.59c-1.03,0-2.21-.55-2.8-1.22-.84.59-2.39,1.22-4.19,1.22-3.42,0-5.93-1.73-5.93-4.93,0-6.96.07-10.83.07-10.83-.33-.26-1.47-.7-1.99-.81.22-1.11.63-1.43.84-1.43,1.4,0,3.24,1.07,3.24,2.1,0,6.88-.15,11.34-.15,11.34.55,1.54,2.03,2.83,4.61,2.83,1.33,0,2.21-.22,3.13-.52,0-6.88.07-13.62.07-13.62-.26-.26-1.18-.66-1.62-.77.18-1.14.63-1.36.81-1.36,1.43,0,2.91,1.07,2.91,2.1,0,6.88-.15,13.7-.15,13.7.29.22,1.44.66,1.95.77-.18,1.14-.63,1.43-.81,1.43h.01Z"/>
    <path class="st0" d="M499.9,189.56c0,4.12-.11,5.67-.29,6.96-.59,4.05-3.68,6.08-5.59,6.08-3.42,0-5.78-1.69-5.78-4.6,0-6.92.11-19.77.11-19.77-.29-.22-1.43-.66-1.95-.77.22-1.14.63-1.43.81-1.43,1.43,0,3.24,1.07,3.24,2.1,0,2.06-.04,4.68-.04,7.33.88-.48,2.13-.84,3.53-.84,3.46,0,5.97,1.77,5.97,4.97v-.02h0ZM495.81,200.82c.99-1.33,1.99-3.02,1.99-6.4v-5.27c-.55-1.54-2.03-2.8-4.61-2.8-1.22,0-1.99.14-2.8.41-.07,5.89-.14,11.6-.14,11.6.63,1.44,2.39,2.54,4.64,2.54.29,0,.59,0,.92-.07h0Z"/>
  </g>
  <g class="st2">
    <g>
      <path class="st0" d="M319.12,96.59c0,.33,0,.78-.11,1.12-1.01,1.57-.78,3.25-1.23,5.27-.11.9-.11,1.35-.22,2.24-.11,1.01,0,1.68-.22,2.69-.22,1.79-.45,2.69-.9,4.48-.11.67-.33.9-.44,1.57-.22,1.46-.33,2.24-.56,3.7-.11,1.01-.11,1.68-.22,2.69-.22,2.01-.33,3.02-.56,5.04-.11,1.01-.11,1.68-.22,2.69-.11.78-.22,1.12-.33,1.9-.22,1.46-.33,2.24-.56,3.7-.22,1.68-.22,2.58-.44,4.26-.11.9-.11,1.34-.22,2.24-.22,1.46-.33,2.35-.56,3.81-.11.78-.11,1.12-.11,1.9,0,1.57,0,2.35-.11,3.92,0,.9-.11,1.35-.33,2.24-.67,2.8-1.23,4.7-1.79,7.06,0,1.9-1.01,3.58-1.01,5.38v.33c-.33,1.23-.67,2.47-1.01,3.7-.22.9-.33,1.79-.56,2.58-.11,1.12-.9,1.68-1.9,1.68h-.33c-.33-.11-.67-.22-1.12-.44-.44.11-.78.56-1.12.9-.22.33-.56.56-.78.78-.33.22-.67.33-1.12.33h-.33c-1.01-.33-2.01-.67-3.14-1.12-.78-.67-1.79-1.57-2.47-2.35-1.68-2.69-2.58-5.49-3.7-8.29-1.12-2.58-2.13-5.27-3.02-7.95-.9-2.47-1.9-4.93-2.91-7.5-1.23-3.47-2.47-6.95-3.47-10.53-.78-3.14-1.79-6.16-2.35-9.3-.67-1.46-.78-3.02-1.79-4.37-.56,0-.9.33-1.01.78-.11.44-.22.78-.22,1.23-.22,1.46-.44,2.69-.67,4.48-.11.56,0,1.01-.11,1.57-.22,1.79-.33,2.8-.56,4.59,0,.56-.11,1.01-.11,1.57,0,1.46,0,2.35-.11,3.81-.11,1.9-.45,3.02-.67,4.93-.11,1.9-.11,3.02-.22,5.04,0,.33-.11.44-.22.78-.22,1.35-.22,2.01-.44,3.36-.11.9-.22,1.46-.44,2.35,0,.22-.22.44-.22.67-.33,3.25-.44,5.15-.9,8.4-.22,1.9-.11,3.14-1.01,4.7-.33.33-.78.67-1.35,1.12-.33.67-.67,1.34-1.01,1.9-.9.78-1.79,1.35-2.8,1.46-1.01-.11-1.9-.56-2.69-1.35-1.01-1.46-1.12-3.14-1.68-4.7-.22-.56-.22-1.12-.22-1.79v-3.14c0-1.23,0-2.13.11-3.58.11-1.01.33-1.57.44-2.58.11-1.01.11-1.68.22-2.69.22-1.79.33-2.8.56-4.59.11-.78.22-1.12.22-1.9.11-.78.11-1.12.11-1.9.22-2.13.33-3.25.56-5.38.44-3.25.67-5.15,1.12-8.4.22-1.23.33-1.79.44-3.02.11-1.57.11-2.35.22-3.92.11-1.34.33-2.01.56-3.36.22-1.23.44-1.79.56-3.02.11-.9.11-1.35.22-2.24.22-1.79.33-2.8.56-4.59.11-.56.11-1.01.11-1.57.11-4.03.11-6.38.11-10.42,0-.78-.22-1.46-.22-2.13,0-.33.11-.67.22-1.01.67-1.46,1.9-2.24,2.91-2.8.44-.22.9-.22,1.46-.22.67,0,1.46.11,2.13.22,1.01.11,2.01.56,3.02.78.33.56.78,1.01,1.12,1.57s.67,1.12,1.01,1.57c.22.33.45.67.67,1.01,2.91,3.81,5.04,8.07,7.17,12.32.56,1.23,1.12,2.58,1.57,3.92,1.46,3.7,2.8,7.39,4.15,11.2.9,2.91,1.57,5.94,2.58,8.85.22.9.45,1.79.78,2.58.33.9.67,1.9.9,2.91.33,1.46,1.01,2.91,1.9,4.15.45,0,.9-.11,1.01-.56.11-.67.11-1.23.22-1.9,0-.78,0-1.57.33-2.35.11-.56.22-1.12.22-1.79.11-1.12.11-1.68.11-2.8.11-1.9.11-3.02.33-4.93.22-1.79.67-2.8.9-4.59.22-1.01.22-1.57.22-2.58.11-1.57.11-2.35.22-3.92.22-2.01.45-3.25.67-5.27.11-.9.22-1.46.33-2.35.11-1.01.22-1.57.33-2.58.22-1.35.44-2.13.67-3.47.11-.44.11-.67.11-1.12.33-2.35.67-4.03.78-6.16.11-1.01.78-1.9.78-2.91,0-.9.11-1.79.11-2.69.56-1.01.9-1.9,1.46-2.8,1.23-2.13,3.25-3.14,5.71-3.25,1.01,0,2.01.22,2.91.22,1.68.9,2.35,2.24,3.02,3.81v4.15h0Z"/>
      <path class="st0" d="M342.37,123.22c.67.78.78,1.46.78,2.47v.45c0,1.34-.11,2.13-.56,3.47-.56,2.24-1.46,3.36-2.13,5.6-.44,1.46-.44,2.35-.78,3.81,0,.44-.11.67-.22,1.12-.22,2.13-.33,3.25-.56,5.38-.11,1.79-.33,2.8-.56,4.59,0,.78-.11,1.12-.11,1.9v.22c0,.78.11,1.46.11,2.13,0,.33,0,.67-.11,1.12-.11,1.01-.44,1.57-1.12,2.24-.67.78-1.23,1.46-2.24,1.46h-.11c-1.01,0-1.12-1.23-2.13-1.68-1.23-.67-2.24-.33-3.47-1.12-1.12-.67-1.57-1.35-2.35-2.35-.44-.67-.78-1.12-.9-2.01,0-.56-.11-1.01-.11-1.35,0-.9.11-1.68.11-2.69v-.78c.33-2.24.45-3.47.78-5.71.22-1.23.44-1.79.56-3.02.22-1.01,0-1.68.22-2.69.67-3.25,1.35-5.6,2.13-9.18.11-.33,0-.56.11-.78.78-1.46.9-2.47,2.01-3.7,1.01-1.01,1.79-1.57,3.13-1.9,1.01-.22,1.79-.44,2.58-.44.56,0,1.12.11,1.68.33,1.68.67,2.24,1.68,3.25,3.14h0ZM347.18,107.42c0,.44-.11,1.01-.22,1.57-.33,1.23-.33,2.8-1.68,2.91h-.78c-2.13,0-3.58-.9-5.6-2.01-1.46-.78-2.01-1.57-2.8-2.91-.22-.33-.33-.56-.33-.9,0-.22.11-.56.33-.9.44-1.23,1.01-1.9,2.01-2.91.11-.33.45-.33.78-.33.9,0,1.57-.33,2.35-.33.33,0,.78.11,1.23.33,2.13,1.12,3.02,2.24,4.37,4.15.22.44.33.9.33,1.35h0Z"/>
      <path class="st0" d="M392.52,161.7c.11.67.33,1.23,0,1.9-1.01,1.57-2.8,2.58-4.37,3.36-.9.44-1.68-.22-2.69-.33-.9-.11-1.34-.11-2.24-.11-1.01,0-1.68.22-2.69-.11-1.9-.67-2.69-1.46-4.48-2.35-1.01-.56-1.68-.9-2.69-1.46-1.12-.67-2.01-.78-3.02-1.57-3.25-2.47-4.93-4.15-7.84-6.95-.33-.33-.33-.67-.56-1.01-.67-1.12-1.12-1.79-1.79-2.91-.9-1.57-1.35-2.47-2.01-4.15-.56-1.35-.9-2.13-1.35-3.47-.33-1.23-.33-1.9-.56-3.14-.22-1.12-.22-1.79-.33-3.02-.11-.78-.11-1.23-.22-2.01-.11-.67,0-1.12,0-1.79,0-.78,0-1.12.11-1.9.33-1.57.33-2.58.67-4.15.22-1.46.45-2.35.78-3.81.78-3.36,1.12-5.27,2.24-8.52.67-2.01,1.35-3.02,2.35-4.81.67-1.23,1.12-1.79,1.9-2.91,1.12-1.46,1.79-2.47,3.02-3.58,1.01-.9,2.13-1.79,3.25-2.69.9-.67,1.9-1.35,2.8-1.9.78-.45,1.57-.9,2.13-1.23.44-.11.78-.11,1.12-.11.67,0,2.68.22,3.24.56,1.01.67,1.69,1.24,2.36,2.25.11.67.22,1.23.22,1.9,0,.44-.11,1.01-.11,1.46-.33.9-.9,1.57-1.57,2.24-.67.56-1.35,1.12-2.01,1.79-2.58,2.13-4.59,4.81-6.16,7.84-.44.9-.78,1.9-1.12,2.8-1.79,5.15-1.9,7.28-3.02,11.87-.11.44-.22.67-.22,1.12-.22,1.01-.33,1.68-.45,2.69-.11.56-.22.9-.11,1.46.22,1.68.33,2.58.78,4.26.44,1.9.56,3.02,1.46,4.7.67,1.57,1.35,2.47,2.58,3.81.56.78,1.12,1.23,2.01,1.79,1.57,1.12,2.58,1.68,4.37,2.58,1.12.56,1.9.78,3.14,1.23,1.12.44,1.68.67,2.91,1.12,1.68.67,2.8,1.57,4.26,2.69,1.57,1.23,1.9,1.34,3.02,2.91.33.67.67,1.01.9,1.68h0Z"/>
      <path class="st0" d="M441.24,99.02c0,.32-.32.53-.64.64-.75.32-1.39.1-2.24.43-.75.32-.96,1.07-1.81,1.28-2.02.64-3.09.75-4.37.75-1.07,0-2.34-.1-4.47-.1-1.17,0-2.02.21-3.3.32-1.39.1-2.13,0-3.51.32-.43.1-.75.53-.96.75-.1.43-.32.64-.32.85v3.62c-.1,2.66-.1,5.22-.21,7.78,0,.96-.1,1.92-.43,2.88-.1.32-.1.75-.1,1.07.22.53.43.85.96,1.17.22,0,.43.1.64.1,1.81.1,2.98.1,4.69.1h.32c1.92,0,3.09-.1,4.9-.1h1.28c1.17,0,1.81.1,2.98.43.43.1.64.22.96.53.53.75.75,1.28.96,2.13.1.53.1,1.07.1,1.49s0,.96-.1,1.49c-.1.32-.32.43-.64.53-1.39.43-2.13.53-3.51.85-1.07.32-1.81.75-2.77.75-1.07,0-2.02.22-2.88.53-.64.1-1.17.1-1.92.1h-.43c-1.17,0-2.02-.1-2.98-.1-.64,0-1.28,0-2.02.21-.96.22-1.49.85-1.81,1.71-.1,0-.22.32-.22.53-.22,1.39-.43,2.56-.75,4.26-.1.53,0,.96-.1,1.49-.1.96-.21,1.6-.43,2.56,0,.22-.22.43-.22.64-.1,1.49-.1,2.24-.32,3.73-.1,1.39-.22,2.13-.53,3.51-.43,2.24-1.49,2.77-1.49,5.11,0,.22.1.43.1.53.22.64.53,1.07,1.07,1.07.64.1,1.17.1,1.71.1,2.56,0,4.37-.43,7.24-.43h1.81c1.39.22,2.24.32,3.62.75.32.22.53.43.75.75.32.64.64.96,1.07,1.49.43.64.85,2.56,1.07,3.3.1.53.21.96.21,1.49,0,.64-.21,1.17-.75,1.71-1.28,1.07-2.45.85-4.05.96-3.51.22-6.39.53-9.16.53-1.71,0-3.41-.1-5.22-.53-1.92-.43-4.37-.64-7.24-1.81-.64-.22-1.17-1.17-1.6-1.71-.75-.85-1.07-1.39-1.39-2.34-.53-1.28-.75-2.34-.75-3.51.1-1.49.32-2.66.64-4.36.21-1.28.21-1.92.53-3.2.22-1.28.53-1.92.85-3.19,0-.32,0-.43.1-.75.22-1.71.43-2.66.75-4.37.43-2.98.96-5,.96-7.56,0-.53.22-.96.32-1.49-.22-.21-.43-.64-.75-.75-.85-.43-1.81-.53-2.77-1.07-.53-.32-.96-.43-1.17-.96-.64-1.28-.64-2.13-.85-3.51-.1-.32-.1-.53-.1-.75s0-.43.1-.75c0-.21.1-.43.43-.53,2.34-.53,4.26.1,6.18-.96.1-.22.43-.43.43-.64.43-1.39.64-2.56.96-4.26s.43-2.56.64-4.26v-.75c0-2.66.22-4.79.22-6.92v-1.39c-.43-.96-1.17-1.17-1.81-2.02-.53-.75-.75-1.28-1.17-2.13-.32-.64-.53-.96-.85-1.6-.1-.22-.32-.32-.32-.53v-.1c.43-1.07.53-2.24,1.71-2.56,2.13-.53,3.41-.64,4.9-.64s3.19.1,6.07.1c1.49,0,2.98,0,4.37-.53.32-.1.64-.1,1.07-.1h4.9c.85,0,1.6,0,2.45-.1,2.45-.22,2.98-.32,3.83-.32h1.17c1.17.1,2.24.53,2.77,1.07.96.96,1.39,1.49,1.92,2.66.53.96.75,1.49.75,2.56h-.01Z"/>
      <path class="st0" d="M510.12,121.88v2.58c0,1.01,0,1.57-.11,2.69s-.34,1.79-.45,3.02c-.11.22-.11.45-.11.78-.22,1.57-.33,2.47-.67,4.15-.33,1.57-.56,2.47-.9,4.15-.67,3.02-1.23,5.27-1.79,7.84-.56,2.69-1.23,5.27-1.9,7.84-.11.22-.22.56-.22.78,0,2.58-.33,4.59-1.01,7.5-.9,3.81-2.69,5.6-4.7,5.71h-.11c-2.13,0-4.37-1.68-6.38-4.59-.67-1.01-.56-1.68-.9-2.69,0-.33,0-.78.11-1.12.22-.67.45-1.23.45-1.9-.11-.44-.11-.78-.11-1.12,0-2.13.78-4.15,1.23-6.05.78-1.57.67-3.25,1.23-4.81.34-1.12.34-2.24.78-3.36.34-1.01.22-2.01.67-3.02.11-.22.11-.56.11-.78v-.78c0-.22-.11-.44-.22-.67-.33.11-.67.33-1.01.56-1.57,1.46-3.14,3.02-4.93,4.26-1.01.78-2.01,1.68-2.69,2.69-.22.67-.11,1.35-.67,1.79-1.57,1.01-2.8,1.23-4.59,1.9-.78.22-1.12.33-1.9.44-1.01.11-1.68.33-2.47.33-.34,0-.67,0-1.01-.11-1.12-.44-1.35-1.34-2.13-2.13-.33-.45-.22-.9-.67-1.12-2.69-1.68-4.59-1.79-7.28-3.7-1.68-1.23-2.8-2.69-4.37-4.48-1.01-1.23-1.46-1.9-2.13-3.14-1.01-1.79-1.46-2.69-2.13-4.48-.56-1.46-.67-2.35-1.01-3.81-.22-.78-.11-1.23-.22-1.9-.11-.44-.11-.78-.11-1.12-.33-2.91-.67-4.81-.78-7.28,0-2.58,0-5.15.11-7.73,0-1.57,0-3.13.45-4.59.45-1.35.45-2.8,1.12-4.04,1.12-4.48,3.36-8.4,5.6-12.32.67-1.35,1.68-2.58,2.69-3.7,2.24-2.69,4.15-4.93,7.39-7.39,1.46-1.23,2.69-1.46,4.59-1.79.11-.11.22-.11.33-.11.45,0,.78.22,1.12.56,2.01,1.79,3.81,2.58,4.7,5.27,0,.11.11.33.11.56,0,1.12-1.23,1.9-1.9,3.14-.9,1.46-1.68,2.58-2.69,3.7-.22.78-.44,1.57-.78,2.24-.22.67-.67,1.35-1.12,2.01-1.46,2.24-2.91,4.48-4.14,6.95-1.9,3.7-3.03,7.61-4.15,11.54-.34,1.46-.45,3.02-.78,4.59-.11.67-.11,1.35-.11,2.13v2.47c0,.33,0,.67.11,1.12.22,2.35.33,3.7.67,6.16.22,1.68.33,2.69.9,4.48.45,1.57.45,2.8,1.68,3.92,1.46,1.23,3.03,1.23,4.7,1.57h.56c.78,0,1.57-.33,2.35-.67.33-.22.67-.44.9-.67,2.58-2.58,5.27-4.93,7.62-7.73,1.35-1.57,2.69-3.13,4.03-4.7.34-.56.67-1.12,1.01-1.68.22-.56.45-1.12.78-1.68-.11-.11-.11-.33-.11-.56,0-.56.22-1.57.22-2.13,0-.22-.11-.44-.22-.44v.11c-.67.11-1.46.11-2.01.11s-1.01,0-1.23-.11c-.9-.33-1.57-.44-2.13-.44-.67,0-1.23.11-1.9.11h-.56c-.9-.11-1.9-.22-2.91-.33-.45-.33-.9-.56-1.23-.9-.56-.44-.9-1.01-.9-1.68v-3.47c0-1.12.67-1.9,1.68-2.35.34-.22.67-.33,1.23-.56.56-.11,1.35-.11,2.13-.11,1.01-.11,2.01-.22,3.02-.56,1.57-.45,3.25-.56,4.93-.9.56-.11,1.23-.22,1.9-.22s1.23.11,1.9.11c1.35,0,2.47-.33,3.7-.33.78,0,1.46.11,2.35.44,2.13.67,3.36,1.57,4.81,3.36.9,1.01.67,2.13,1.12,3.58.33,1.12.45,1.79.67,3.02.22,1.12.56,1.79.67,3.02.11,1.12.11,1.9.11,2.8h-.01Z"/>
      <path class="st0" d="M565.45,94.55c.11.22.22.44.22.67,0,.67-.56,1.35-.78,2.24v.22c-.22,1.01-.45,1.68-.67,2.69-.11.56-.11.9-.22,1.46-.11,1.01-.22,1.68-.44,2.69-.11.56-.11.9-.22,1.46-.22,1.35-.34,2.13-.56,3.47-.11.78-.11,1.12-.22,1.9v.11c0,.22.11.33.11.56v.11c-.11.33-.11.44-.22.78-.22,1.79-.44,2.69-.78,4.48-.33,2.01-.56,3.25-1.01,5.27-.11.78-.22,1.12-.45,1.9-.22,1.46-.33,2.35-.67,3.81-.22,1.23-.44,2.01-.9,3.25-.33,1.35-.45,2.13-1.01,3.36-.45,1.23-.67,2.01-1.46,3.14-1.57,2.35-2.58,4.15-4.37,5.82-1.79,1.79-3.24,3.25-5.71,4.81-.33.22-.67.33-1.12.33h-1.12c-.33,0-.56-.11-.78-.11h-.22c-1.79.22-3.02.78-4.7.78h-.78c-2.13-.22-3.36-1.01-5.27-2.01-1.23-.67-1.9-1.35-2.91-2.47-1.12-1.46-1.79-2.47-2.47-4.26-.78-2.35-.78-3.92-1.23-6.38-.22-1.46-.34-2.35-.56-3.81,0-.33-.11-.44-.11-.78-.11-5.15-.22-8.74-.22-13.11v-3.14c.11-2.58.67-5.04,1.35-7.61.22-.67.34-1.46.45-2.24.67-1.12,1.57-2.13,2.8-2.58.9-.22,3.47-.56,4.48-.9h.67c.11,0,.34,0,.45.11,1.01.9,1.57,1.46,2.13,2.69.11.33.22.56.22.9s-.11.67-.11,1.01c0,.9-.11,1.9-.45,2.91-.22.67-.33,1.23-.33,1.9-.11,1.57-.11,3.14-.11,4.59v1.01c0,1.9,0,3.7.11,6.05.11,1.23.22,1.79.33,3.02.11.78.22,1.12.22,1.9.11,1.68,0,2.58.11,4.26.11,1.23.33,1.79.44,3.02.22,1.46.11,2.24.45,3.7.45,1.9,1.12,2.24,1.9,2.24.33,0,.78-.11,1.12-.11,2.58-.33,5.49-4.15,6.38-6.05,1.12-2.24,1.01-5.49,1.12-6.38.22-1.23.33-1.79.56-3.02.22-1.23.22-1.79.45-3.02.11-.44.22-.78.22-1.23.34-1.9.45-3.02.67-4.93.11-.9.11-1.35.22-2.24.22-1.35.22-2.13.44-3.47.11-.33.22-.44.22-.78.11-1.57.11-2.58.22-4.15.22-1.46.44-2.35.67-3.81.11-.56.22-1.01.33-1.57.22-1.01.22-1.68.56-2.69s.45-1.68,1.12-2.35c1.12-1.12.56-1.46,1.9-2.24.9-.44,3.47-1.34,4.81-1.34.33,0,.56,0,.67.11,2.13.9,3.02,2.01,4.04,4.03v.02h0Z"/>
      <path class="st0" d="M616.54,91.97c0,.77-.51,1.28-.51,1.91,0,.89-.12,1.78-.12,2.68-1.14,2.54-2.17,5.1-3.31,7.64-.51,1.28-1.02,2.42-1.4,3.69-.12,1.02-.77,1.91-1.4,2.68-.63.89-1.14,1.78-1.4,2.68-1.02,2.68-2.04,5.22-3.05,7.76-1.14,3.05-2.29,5.99-3.31,9.04-1.02,2.93-1.91,5.85-2.93,8.66-.38,1.28-1.02,2.42-1.53,3.69-.63,1.14-1.14,2.29-1.14,3.69,0,.77-.26,1.4-.38,2.17-.63,1.91-1.4,3.82-1.4,5.99,0,.38-.26.77-.39,1.14-.51,1.4-.63,2.93-1.02,4.33-.38,1.4-.38,2.8-.89,4.21-.26.77-.26,1.52-.26,2.29v2.93c-.63,1.4-1.02,2.42-1.91,3.05-.26.26-.77.26-1.14.38-.63-.51-1.14-.89-1.78-1.28-.39.12-.77.38-1.28.51-.51.12-1.14.12-1.65.12-1.4-.12-2.8-.89-4.2-2.29-.38-1.14-.38-2.17-.38-3.31v-1.79c.12-1.65.26-3.19.77-4.84.38-1.4.26-3.05,1.02-4.59.51-1.4,0-2.93.77-4.33,1.02-4.96,2.54-9.81,3.95-14.77.51-1.4,1.02-2.68,1.4-3.94,0-1.02-.26-1.65-1.02-2.03-1.53-.77-2.68-2.03-3.57-3.57-2.17-3.31-2.29-3.31-4.96-9.04v-.26c0-1.53-.9-3.05-1.02-4.71-.63-1.65-.63-3.43-1.27-5.1-.12-.51-.26-1.14-.26-1.65-.26-1.78-.12-3.57-.77-5.22-.12-1.65-.26-3.31-.26-4.84,0-1.02,0-2.17.12-3.19.26-.38.63-.89,1.02-1.4.51-.63,1.4-1.02,2.29-1.14,1.02,0,2.04.12,3.19.38.89.77,1.91,1.65,2.8,2.54.38.26.51.63.77.89.38.89.38,1.53.38,2.29.12,1.02.12,2.03.51,3.05.12.63.26,1.4.26,2.17,0,2.17.39,4.33.89,6.5.77,2.54,1.14,5.1,2.17,7.39.38.12.63.26,1.02.26.89-.38,1.53-1.28,2.04-2.17,1.65-3.05,3.57-5.99,5.48-8.92.39-.63.63-1.28.89-2.03,1.4-3.05,3.05-5.99,4.21-9.16.63-1.28,1.27-2.54,1.91-3.95.26-.51.63-.89,1.02-1.28,1.02-.51,1.91-1.28,2.93-1.28.26,0,.51,0,.77.12,1.27.38,1.78,1.53,2.92,2.29.39.12.89.26,1.65.38.77.63,1.78,1.28,2.68,1.91.12.26.12.38.12.63l-.02.03h0Z"/>
    </g>
    <g>
      <path class="st0" d="M242.49,50.02c.4-.07.33-.47.57-.65.31-.19.8-.14,1.05-.32.42-.35.56-.72,1.09-.81.6-.1,1.18.07,2,.06.16-.65.33-1.22.6-1.28.8-.14,1.41-.6,3.01-.88,2-.35,3.45,1.65,4.33,3.91,2.24,5.72,3.73,10.61,5.91,16.41.2.72,1.1,3.11,2.18,6.14,1.71-10.54,2.34-15.94,3.43-20.66.66-2.87,2.14-8.9,3.47-9.13.53-.09,1.01.3,1.97.27l.56.04.39-.9c.33-.88,1.24-1.18,1.97-1.31.73-.13,3.2-.15,4.01.53.64.5,1.28,4.1,1.71,5.82,1.55,6.05,2.98,12.19,4.65,18.21,1.48,5.31,3.66,11.79,4.42,16.12.19,1.07.3,2.08.01,2.81-.34.82-2.02,2.97-2.69,3.09-1.2.21-1.65-.8-2.32-.69-.46.09-.87.91-1.67,1.05-.6.1-1.86-.01-2.28-.84-.41-.75-1.29-3.41-2.11-6.16-1.34-4.51-2.65-8.39-5.26-20.09l-1.65,8.95c-1.05,5.34-2.54,14.4-2.92,16.18-.33,1.64-.83,3.86-2.43,4.14-.53.09-1.19-.13-1.46-.5s-.43-.88-.89-1.15l-.44-.2-.2.03c-.33.06-2.29.27-2.78-.2-1.09-1.11-1.79-2.71-2.42-4.38-2.48-6.64-5.02-14.02-7.53-21.27.21,8.21.24,15.76,1.07,22.42.16,1.28.77,5.91.85,6.38.19,1.07.16,1.69-.44,2.2-.48.43-1.02.45-1.64.84-.86.56-1.3,1.19-2.43,1.39-1.2.21-1.29-.67-1.58-1.16-.28-.43-.88-.33-1.43-.3-2.05.02-2.6-.71-3.08-3.44-.61-3.47-.41-5.08-.64-7.52-.97-9.38-2-20.67.28-32.68.09-.29.27-.39.74-.48h0Z"/>
      <path class="st0" d="M300.02,59.59c1.35-2.51,5.11-8.8,7.57-9.24.73-.13,1.75.99,2.02,1.71.14.39.13.73.21,1.2.1.6,1.47.56,1.65,1.15.15.45.56.86.62,1.2.12.67-.67,2.45-1.07,2.94-2.56,3-4.13,3.47-8.64,8.67.24.99.44,2.12.64,3.25.75,4.26.72,6.81,1.49,11.21.16.94-.28,1.15-.37,1.44-.13.44-.97.72-1.78,1.62-.11.16-.54.44-.94.51-.67.12-1.26-.54-1.46-.5-1.16.07-2.19.05-2.85-.6-.82-.75-1.17-2.75-1.57-3.85-.3-.91-.54-1.9-1.24-5.83-.77-4.33-2.13-11.65-1.5-15.88.18-1.33.71-2.18,1.35-2.85.46-.5.49-1.12.82-1.18.6-.1,1.2-.21,1.56-.14.57.1.91.87,1.2,1.37.39.62.37.55.69.43.26-.11.65.57,1.27,2.52.05.27.16.52.29.84h.01Z"/>
    </g>
  </g>
  <g>
    <path class="st1" d="M99.12,253.82v159.54h-18.32v-70.99h-7.42v70.99h-18.32v-159.54h18.32v70.99h7.42v-70.99h18.32Z"/>
    <path class="st1" d="M125.13,271.38v53.44h14.35v17.56h-14.35v53.43h18.8v17.56h-37.12v-159.54h37.12v17.55h-18.8Z"/>
    <path class="st1" d="M195.7,344.85v68.51h-18.32v-65.06c0-3.06-2.48-5.53-5.54-5.53h-2.07v70.59h-18.32v-159.54h29.79c7.98,0,14.45,6.47,14.45,14.45v54.54c0,6.17-5,11.18-11.18,11.18h.32c6,0,10.86,4.86,10.86,10.86ZM173.77,271.38h-4v53.83h3.27c2.39,0,4.33-1.94,4.33-4.33v-45.89c0-1.99-1.61-3.61-3.61-3.61Z"/>
    <path class="st1" d="M236.37,332.49c6.13,0,11.1,4.97,11.1,11.1v53.9c0,8.77-7.11,15.87-15.87,15.87h-28.17v-159.54h25.72v-.02h2.44c8.77,0,15.88,7.11,15.88,15.88v51.69c0,6.13-4.97,11.1-11.1,11.1ZM221.75,271.39v52.32h1.63c3.19,0,5.77-2.58,5.77-5.77v-42.95c0-1.99-1.61-3.6-3.6-3.6h-3.8ZM229.15,347.05c0-3.2-2.59-5.78-5.78-5.78h-1.62v54.55h3.79c1.99,0,3.61-1.62,3.61-3.61v-45.16Z"/>
    <path class="st1" d="M273.5,271.38v53.44h14.35v17.56h-14.35v53.43h18.8v17.56h-37.12v-159.54h37.12v17.55h-18.8Z"/>
    <path class="st1" d="M323.44,316.52v-42.8c0-1.99-1.62-3.61-3.61-3.61h-.33c-1.99,0-3.61,1.61-3.61,3.61v40.53c0,2.8,1.14,4.43,1.99,5.25l.9.7,15.68,12.1s7.3,4.73,7.3,15.99v47.96c0,10.15-8.23,18.38-18.38,18.38h-7.42c-10.15,0-18.38-8.23-18.38-18.38v-47.96h18.32v45.18c0,2,1.62,3.61,3.61,3.61h.33c1.99,0,3.61-1.61,3.61-3.61v-43.32c-.01-.61-.19-2.95-2.2-4.5l-17.37-13.4c-7.13-5.5-6.3-13.34-6.3-13.34v-47.96c0-10.15,8.23-18.38,18.38-18.38h7.42c10.15,0,18.38,8.23,18.38,18.38v45.58h-18.32Z"/>
    <path class="st1" d="M438.5,254.41v159.54h-18.32v-79.77l-10.25,79.77h-4.61l-10.25-79.77v79.77h-18.32v-159.54h19.83l11.04,79.77,11.04-79.77h19.83Z"/>
    <path class="st1" d="M475.32,344.69v68.67h-18.32v-68.67l-14.53-90.87h18.79l5.15,61.49,5.15-61.49h18.79l-15.05,90.87Z"/>
    <path class="st1" d="M537.35,271.38h-12.4v141.98h-18.32v-141.98h-12.4v-17.55h43.13v17.55Z"/>
    <path class="st1" d="M587.28,253.82v159.54h-18.32v-70.99h-7.42v70.99h-18.32v-159.54h18.32v70.99h7.42v-70.99h18.32Z"/>
    <path class="st1" d="M593.83,413.36v-159.54h18.32v159.54h-18.32Z"/>
    <path class="st1" d="M654.75,409.59l4.02,5.24-13.7,4.75-3.61-4.96h-4.74c-10.15,0-18.38-8.23-18.38-18.38v-125.31c0-10.15,8.23-18.38,18.38-18.38h7.42c10.15,0,18.38,8.23,18.38,18.38v125.31c0,5.85-3.5,9.98-7.77,13.35ZM643.6,395.45c.38-.57.6-1.25.6-1.99v-119.74c0-1.99-1.61-3.61-3.61-3.61h-.33c-1.99,0-3.61,1.61-3.61,3.61v119.74c0,.15.01.3.03.44l4.23-1.88,2.69,3.43Z"/>
    <path class="st1" d="M714.27,253.82v142.34c0,10.15-8.23,18.38-18.38,18.38h-7.42c-10.15,0-18.38-8.23-18.38-18.38v-142.34h18.32v139.55c0,1.99,1.62,3.61,3.61,3.61h.33c1.99,0,3.61-1.62,3.61-3.61v-139.55h18.32Z"/>
    <path class="st1" d="M740.15,271.38v53.44h14.35v17.56h-14.35v53.43h18.8v17.56h-37.12v-159.54h37.12v17.55h-18.8Z"/>
    <path class="st1" d="M790.08,316.52v-42.8c0-1.99-1.61-3.61-3.61-3.61h-.32c-1.99,0-3.61,1.61-3.61,3.61v40.53c0,2.8,1.14,4.43,1.98,5.25l.9.7,15.68,12.1s7.3,4.73,7.3,15.99v47.96c0,10.15-8.23,18.38-18.38,18.38h-7.42c-10.15,0-18.38-8.23-18.38-18.38v-47.96h18.32v45.18c0,2,1.62,3.61,3.61,3.61h.32c2,0,3.61-1.61,3.61-3.61v-43.32c-.01-.61-.19-2.95-2.2-4.5l-17.37-13.4c-7.13-5.5-6.3-13.34-6.3-13.34v-47.96c0-10.15,8.23-18.38,18.38-18.38h7.42c10.15,0,18.38,8.23,18.38,18.38v45.58h-18.32Z"/>
  </g>
  <path class="st3" d="M819.36,241.09h-1.8v4.03h-2.26v-10.97h4.07c1.07-.07,2.13.24,2.99.86.73.62,1.12,1.54,1.05,2.5.02.66-.14,1.31-.49,1.87-.35.56-.87.99-1.47,1.25l2.37,4.48v.12h-2.42l-2.05-4.03M817.56,239.38h1.82c.48.03.95-.13,1.31-.44.33-.33.5-.78.46-1.25.04-.46-.12-.91-.44-1.25-.37-.33-.86-.48-1.35-.44h-1.81v3.37Z"/>
  <path class="st3" d="M819.12,228.96c-5.92,0-10.72,4.8-10.72,10.72s4.8,10.72,10.72,10.72,10.72-4.8,10.72-10.72-4.8-10.72-10.72-10.72M819.12,248.26c-4.74,0-8.58-3.84-8.58-8.58s3.84-8.58,8.58-8.58,8.58,3.84,8.58,8.58-3.84,8.58-8.58,8.58"/>
</svg>