<?xml version="1.0" encoding="UTF-8"?>
<svg id="Layer_1" xmlns="http://www.w3.org/2000/svg" version="1.1" viewBox="0 0 866.53 476.61">
  <!-- Generator: Adobe Illustrator 29.2.0, SVG Export Plug-In . SVG Version: 2.1.0 Build 108)  -->
  <defs>
    <style>
      .st0 {
        fill: #f9f9f1;
      }
    </style>
  </defs>
  <g>
    <path class="st0" d="M362.63,191.02l-4.19.07c-.07,4.82-.11,8.82-.11,8.82.48.37,1.12.64,1.83.78-.23,1.16-.64,1.45-.86,1.45-1.31,0-3.14-1.08-3.14-2.13,0-7.03.11-21.2.11-21.2-.64-.04-1.49-.19-2.02-.37,0-1.16.26-1.49.71-1.49h9.05c2.06,0,2.84.19,2.84,1.01,0,.3-.07.9-.15,1.05-.67-.07-1.31-.11-3.06-.11h-5.12c0,2.76-.04,6.58-.07,10.2h7.63c.07.3.11.67.11.94,0,.75-.3.94-3.55.97h-.01,0Z"/>
    <path class="st0" d="M370.14,200.03c0-7.03.11-22.62.11-22.62-.34-.23-1.45-.67-1.98-.78.19-1.16.6-1.45.82-1.45,1.42,0,3.29,1.08,3.29,2.13,0,6.96-.19,22.62-.19,22.62.34.23,1.45.67,1.98.78-.19,1.16-.6,1.45-.82,1.45-1.42,0-3.22-1.08-3.22-2.13Z"/>
    <path class="st0" d="M388.65,195.99c-.52,3.29-3.55,6.17-5.68,6.17-3.29,0-6.13-2.25-6.13-5.38,0-4.19.04-5.42.23-6.73.52-3.26,3.55-6.17,5.68-6.17,3.26,0,6.2,2.25,6.2,5.38,0,4.19-.07,5.42-.3,6.73ZM384.35,200.44c1.31-1.35,2.46-3.44,2.46-7.63v-4.37c-.78-1.72-2.69-2.84-4.9-2.84-.23,0-.41,0-.64.04-1.27,1.31-2.39,3.44-2.39,7.59v4.37c.75,1.76,2.69,2.84,4.9,2.84h.56Z"/>
    <path class="st0" d="M413.62,193.45c-.19,5.95-2.46,8.71-4.71,8.71-1.65,0-3.55-.64-4.86-1.79-.86.82-2.46,1.79-4.67,1.79-3.55,0-6.32-2.13-6.32-5.61,0-7.07.07-10.39.07-10.39-.34-.26-1.49-.71-2.02-.82.23-1.12.64-1.45.86-1.45,1.42,0,3.29,1.08,3.29,2.13,0,6.99-.15,10.84-.15,10.84.75,2.21,2.43,3.55,4.94,3.55,1.38,0,2.54-.52,3.14-.97-.56-.78-.94-1.76-.94-2.88,0-7.07.07-10.5.07-10.5-.23-.26-1.2-.67-1.65-.78.23-1.16.64-1.38.86-1.38,1.42,0,2.92,1.08,2.92,2.13,0,6.99-.15,10.84-.15,10.84.75,2.09,2.99,3.55,5.12,3.55h.67c.71-1.49,1.42-3.22,1.42-8.98v-5.38c-.23-.26-1.16-.67-1.61-.78.19-1.16.6-1.38.82-1.38,1.42,0,2.92,1.08,2.92,2.13,0,0,0,4.9-.04,7.44v-.03h0Z"/>
    <path class="st0" d="M417.28,198.05c0-4.56,0-5.83.19-8.08.45-4.64,3.29-6.09,4.48-6.09,2.25,0,5.68,2.69,5.68,5.98,0,2.32-4.71,3.22-8.26,3.29v.45l-.04,4.75c1.65,1.49,3.93,2.13,6.96,2.32,0,1.12-.23,1.72-1.12,1.72-3.51,0-7.89-1.61-7.89-4.34h0ZM420.95,185.45c-.64.82-1.35,2.43-1.53,6.2,2.28-.19,5.08-.6,6.17-1.42-.11-2.76-2.76-4.78-4.41-4.78h-.23Z"/>
    <path class="st0" d="M434.81,185.68c-.48,0-.97.11-1.38.26v.07c0,6.99-.15,13.91-.15,13.91.3.23,1.45.67,1.98.78-.23,1.16-.64,1.45-.82,1.45-1.46,0-3.22-1.08-3.22-2.13,0-7.03.07-13.87.07-13.87-.34-.26-1.49-.71-2.02-.82.23-1.12.64-1.45.86-1.45.97,0,2.17.52,2.8,1.2.64-.64,1.87-1.2,2.96-1.2,1.61,0,2.46.75,2.46,1.72,0,.48-.19.78-.67,1.12-1.05-.82-1.68-1.05-2.88-1.05h0Z"/>
    <path class="st0" d="M460.04,180.89c-1.2-1.27-3.22-2.28-6.28-2.43-2.02,1.05-4.6,3.89-4.64,11.4l-.04,6.84c1.72,2.25,4.52,3.7,10.8,3.7,0,1.01,0,1.98-1.91,1.98-6.73,0-11.14-2.96-11.14-6.2,0-5.87.04-8.82.26-10.62.86-5.91,5.01-9.01,7.51-9.01,4.07,0,6.32,1.65,6.32,2.84,0,.64-.41,1.16-.9,1.49h0Z"/>
    <path class="st0" d="M464.04,200.03c0-7.03.11-22.62.11-22.62-.34-.23-1.45-.67-1.98-.78.19-1.16.6-1.45.82-1.45,1.42,0,3.29,1.08,3.29,2.13,0,6.96-.19,22.62-.19,22.62.34.23,1.45.67,1.98.78-.19,1.16-.6,1.45-.82,1.45-1.42,0-3.22-1.08-3.22-2.13h0Z"/>
    <path class="st0" d="M484.9,202.16c-1.05,0-2.25-.56-2.84-1.24-.86.6-2.43,1.24-4.26,1.24-3.47,0-6.02-1.75-6.02-5.01,0-7.07.07-10.99.07-10.99-.34-.26-1.49-.71-2.02-.82.23-1.12.64-1.45.86-1.45,1.42,0,3.29,1.08,3.29,2.13,0,6.99-.15,11.51-.15,11.51.56,1.57,2.06,2.88,4.68,2.88,1.35,0,2.25-.23,3.18-.52,0-6.99.07-13.83.07-13.83-.26-.26-1.2-.67-1.65-.78.19-1.16.64-1.38.82-1.38,1.45,0,2.96,1.08,2.96,2.13,0,6.99-.15,13.91-.15,13.91.3.23,1.46.67,1.98.78-.19,1.16-.64,1.45-.82,1.45h.01Z"/>
    <path class="st0" d="M500.79,188.92c0,4.19-.11,5.76-.3,7.07-.6,4.11-3.74,6.17-5.68,6.17-3.47,0-5.87-1.72-5.87-4.67,0-7.03.11-20.08.11-20.08-.3-.23-1.45-.67-1.98-.78.23-1.16.64-1.45.82-1.45,1.45,0,3.29,1.08,3.29,2.13,0,2.09-.04,4.75-.04,7.44.9-.48,2.17-.86,3.59-.86,3.51,0,6.06,1.79,6.06,5.05v-.02h0ZM496.64,200.36c1.01-1.35,2.02-3.06,2.02-6.5v-5.35c-.56-1.57-2.06-2.84-4.68-2.84-1.24,0-2.02.15-2.84.41-.07,5.98-.15,11.78-.15,11.78.64,1.46,2.43,2.58,4.71,2.58.3,0,.6,0,.94-.07h0Z"/>
  </g>
  <g>
    <g>
      <path class="st0" d="M317.2,94.5c0,.34,0,.8-.11,1.14-1.02,1.59-.8,3.3-1.25,5.35-.11.91-.11,1.37-.23,2.27-.11,1.02,0,1.71-.23,2.73-.23,1.82-.46,2.73-.91,4.55-.11.68-.34.91-.45,1.59-.23,1.48-.34,2.27-.57,3.75-.11,1.02-.11,1.71-.23,2.73-.23,2.05-.34,3.07-.57,5.12-.11,1.02-.11,1.71-.23,2.73-.11.8-.23,1.14-.34,1.93-.23,1.48-.34,2.28-.57,3.75-.23,1.71-.23,2.62-.45,4.32-.11.91-.11,1.36-.23,2.27-.23,1.48-.34,2.39-.57,3.87-.11.8-.11,1.14-.11,1.93,0,1.59,0,2.39-.11,3.98,0,.91-.11,1.37-.34,2.27-.68,2.84-1.25,4.78-1.82,7.17,0,1.93-1.02,3.64-1.02,5.46v.34c-.34,1.25-.68,2.5-1.02,3.75-.23.91-.34,1.82-.57,2.62-.11,1.14-.91,1.71-1.93,1.71h-.34c-.34-.11-.68-.23-1.14-.45-.45.11-.8.57-1.14.91-.23.34-.57.57-.8.8-.34.23-.68.34-1.14.34h-.34c-1.02-.34-2.05-.68-3.19-1.14-.8-.68-1.82-1.59-2.5-2.39-1.71-2.73-2.62-5.57-3.75-8.42-1.14-2.62-2.16-5.35-3.07-8.08-.91-2.5-1.93-5.01-2.96-7.62-1.25-3.53-2.5-7.06-3.53-10.7-.8-3.19-1.82-6.26-2.39-9.44-.68-1.48-.8-3.07-1.82-4.44-.57,0-.91.34-1.02.8-.11.45-.23.8-.23,1.25-.23,1.48-.45,2.73-.68,4.55-.11.57,0,1.02-.11,1.59-.23,1.82-.34,2.84-.57,4.66,0,.57-.11,1.02-.11,1.59,0,1.48,0,2.39-.11,3.87-.11,1.93-.46,3.07-.68,5.01-.11,1.93-.11,3.07-.23,5.12,0,.34-.11.45-.23.8-.23,1.37-.23,2.05-.45,3.41-.11.91-.23,1.48-.45,2.39,0,.23-.23.45-.23.68-.34,3.3-.45,5.23-.91,8.53-.23,1.93-.11,3.19-1.02,4.78-.34.34-.8.68-1.37,1.14-.34.68-.68,1.36-1.02,1.93-.91.8-1.82,1.37-2.84,1.48-1.02-.11-1.93-.57-2.73-1.37-1.02-1.48-1.14-3.19-1.71-4.78-.23-.57-.23-1.14-.23-1.82v-3.19c0-1.25,0-2.16.11-3.64.11-1.02.34-1.59.45-2.62.11-1.02.11-1.71.23-2.73.23-1.82.34-2.84.57-4.66.11-.8.23-1.14.23-1.93.11-.8.11-1.14.11-1.93.23-2.16.34-3.3.57-5.46.45-3.3.68-5.23,1.14-8.53.23-1.25.34-1.82.45-3.07.11-1.59.11-2.39.23-3.98.11-1.36.34-2.05.57-3.41.23-1.25.45-1.82.57-3.07.11-.91.11-1.37.23-2.28.23-1.82.34-2.84.57-4.66.11-.57.11-1.02.11-1.59.11-4.09.11-6.48.11-10.58,0-.8-.23-1.48-.23-2.16,0-.34.11-.68.23-1.02.68-1.48,1.93-2.27,2.96-2.84.45-.23.91-.23,1.48-.23.68,0,1.48.11,2.16.23,1.02.11,2.05.57,3.07.8.34.57.8,1.02,1.14,1.59s.68,1.14,1.02,1.59c.23.34.46.68.68,1.02,2.96,3.87,5.12,8.19,7.28,12.52.57,1.25,1.14,2.62,1.59,3.98,1.48,3.75,2.84,7.51,4.21,11.37.91,2.96,1.59,6.03,2.62,8.99.23.91.46,1.82.8,2.62.34.91.68,1.93.91,2.96.34,1.48,1.02,2.96,1.93,4.21.46,0,.91-.11,1.02-.57.11-.68.11-1.25.23-1.93,0-.8,0-1.59.34-2.39.11-.57.23-1.14.23-1.82.11-1.14.11-1.71.11-2.84.11-1.93.11-3.07.34-5.01.23-1.82.68-2.84.91-4.66.23-1.02.23-1.59.23-2.62.11-1.59.11-2.39.23-3.98.23-2.05.46-3.3.68-5.35.11-.91.23-1.48.34-2.39.11-1.02.23-1.59.34-2.62.23-1.37.45-2.16.68-3.53.11-.45.11-.68.11-1.14.34-2.39.68-4.09.8-6.26.11-1.02.8-1.93.8-2.96,0-.91.11-1.82.11-2.73.57-1.02.91-1.93,1.48-2.84,1.25-2.16,3.3-3.19,5.8-3.3,1.02,0,2.05.23,2.96.23,1.71.91,2.39,2.27,3.07,3.87v4.21h0Z"/>
      <path class="st0" d="M340.81,121.55c.68.8.8,1.48.8,2.5v.46c0,1.36-.11,2.16-.57,3.53-.57,2.28-1.48,3.41-2.16,5.69-.45,1.48-.45,2.39-.8,3.87,0,.45-.11.68-.23,1.14-.23,2.16-.34,3.3-.57,5.46-.11,1.82-.34,2.84-.57,4.66,0,.8-.11,1.14-.11,1.93v.23c0,.8.11,1.48.11,2.16,0,.34,0,.68-.11,1.14-.11,1.02-.45,1.59-1.14,2.27-.68.8-1.25,1.48-2.28,1.48h-.11c-1.02,0-1.14-1.25-2.16-1.71-1.25-.68-2.27-.34-3.53-1.14-1.14-.68-1.59-1.37-2.39-2.39-.45-.68-.8-1.14-.91-2.05,0-.57-.11-1.02-.11-1.37,0-.91.11-1.71.11-2.73v-.8c.34-2.27.46-3.53.8-5.8.23-1.25.45-1.82.57-3.07.23-1.02,0-1.71.23-2.73.68-3.3,1.37-5.69,2.16-9.33.11-.34,0-.57.11-.8.8-1.48.91-2.5,2.05-3.75,1.02-1.02,1.82-1.59,3.18-1.93,1.02-.23,1.82-.45,2.62-.45.57,0,1.14.11,1.71.34,1.71.68,2.28,1.71,3.3,3.19h0ZM345.7,105.51c0,.45-.11,1.02-.23,1.59-.34,1.25-.34,2.84-1.71,2.96h-.8c-2.16,0-3.64-.91-5.69-2.05-1.48-.8-2.05-1.59-2.84-2.96-.23-.34-.34-.57-.34-.91,0-.23.11-.57.34-.91.45-1.25,1.02-1.93,2.05-2.96.11-.34.46-.34.8-.34.91,0,1.59-.34,2.39-.34.34,0,.8.11,1.25.34,2.16,1.14,3.07,2.27,4.44,4.21.23.45.34.91.34,1.37h0Z"/>
      <path class="st0" d="M391.74,160.64c.11.68.34,1.25,0,1.93-1.02,1.59-2.84,2.62-4.44,3.41-.91.45-1.71-.23-2.73-.34-.91-.11-1.36-.11-2.27-.11-1.02,0-1.71.23-2.73-.11-1.93-.68-2.73-1.48-4.55-2.39-1.02-.57-1.71-.91-2.73-1.48-1.14-.68-2.05-.8-3.07-1.59-3.3-2.5-5.01-4.21-7.97-7.06-.34-.34-.34-.68-.57-1.02-.68-1.14-1.14-1.82-1.82-2.96-.91-1.59-1.37-2.5-2.05-4.21-.57-1.37-.91-2.16-1.37-3.53-.34-1.25-.34-1.93-.57-3.19-.23-1.14-.23-1.82-.34-3.07-.11-.8-.11-1.25-.23-2.05-.11-.68,0-1.14,0-1.82,0-.8,0-1.14.11-1.93.34-1.59.34-2.62.68-4.21.23-1.48.46-2.39.8-3.87.8-3.41,1.14-5.35,2.27-8.65.68-2.05,1.37-3.07,2.39-4.89.68-1.25,1.14-1.82,1.93-2.96,1.14-1.48,1.82-2.5,3.07-3.64,1.02-.91,2.16-1.82,3.3-2.73.91-.68,1.93-1.37,2.84-1.93.8-.46,1.59-.91,2.16-1.25.45-.11.8-.11,1.14-.11.68,0,2.72.22,3.29.56,1.02.68,1.72,1.26,2.4,2.29.11.68.23,1.25.23,1.93,0,.45-.11,1.02-.11,1.48-.34.91-.91,1.59-1.59,2.27-.68.57-1.37,1.14-2.05,1.82-2.62,2.16-4.66,4.89-6.26,7.97-.45.91-.8,1.93-1.14,2.84-1.82,5.23-1.93,7.39-3.07,12.06-.11.45-.23.68-.23,1.14-.23,1.02-.34,1.71-.46,2.73-.11.57-.23.91-.11,1.48.23,1.71.34,2.62.8,4.32.45,1.93.57,3.07,1.48,4.78.68,1.59,1.37,2.5,2.62,3.87.57.8,1.14,1.25,2.05,1.82,1.59,1.14,2.62,1.71,4.44,2.62,1.14.57,1.93.8,3.19,1.25,1.14.45,1.71.68,2.96,1.14,1.71.68,2.84,1.59,4.32,2.73,1.59,1.25,1.93,1.36,3.07,2.96.34.68.68,1.02.91,1.71h0Z"/>
      <path class="st0" d="M441.22,96.97c0,.33-.33.54-.65.65-.76.33-1.41.11-2.27.43-.76.33-.97,1.08-1.84,1.3-2.05.65-3.14.76-4.44.76-1.08,0-2.38-.11-4.54-.11-1.19,0-2.05.21-3.35.33-1.41.11-2.17,0-3.57.33-.43.11-.76.54-.98.76-.11.43-.33.65-.33.86v3.68c-.11,2.7-.11,5.3-.21,7.9,0,.98-.11,1.95-.43,2.92-.11.33-.11.76-.11,1.08.22.54.43.86.98,1.19.22,0,.43.11.65.11,1.84.11,3.03.11,4.76.11h.33c1.95,0,3.14-.11,4.98-.11h1.3c1.19,0,1.84.11,3.03.43.43.11.65.22.97.54.54.76.76,1.3.98,2.17.11.54.11,1.08.11,1.51s0,.97-.11,1.51c-.11.33-.33.43-.65.54-1.41.43-2.17.54-3.57.86-1.08.33-1.84.76-2.81.76-1.08,0-2.05.22-2.92.54-.65.11-1.19.11-1.95.11h-.43c-1.19,0-2.05-.11-3.03-.11-.65,0-1.3,0-2.05.21-.98.22-1.51.86-1.84,1.73-.11,0-.22.33-.22.54-.22,1.41-.43,2.6-.76,4.32-.11.54,0,.98-.11,1.51-.11.98-.21,1.62-.43,2.6,0,.22-.22.43-.22.65-.11,1.51-.11,2.27-.33,3.79-.11,1.41-.22,2.17-.54,3.57-.43,2.27-1.51,2.81-1.51,5.19,0,.22.11.43.11.54.22.65.54,1.08,1.08,1.08.65.11,1.19.11,1.73.11,2.6,0,4.44-.43,7.35-.43h1.84c1.41.22,2.27.33,3.68.76.33.22.54.43.76.76.33.65.65.97,1.08,1.51.43.65.86,2.6,1.08,3.35.11.54.21.98.21,1.51,0,.65-.21,1.19-.76,1.73-1.3,1.08-2.48.86-4.11.98-3.57.22-6.49.54-9.3.54-1.73,0-3.46-.11-5.3-.54-1.95-.43-4.44-.65-7.35-1.84-.65-.22-1.19-1.19-1.62-1.73-.76-.86-1.08-1.41-1.41-2.38-.54-1.3-.76-2.38-.76-3.57.11-1.51.33-2.7.65-4.43.21-1.3.21-1.95.54-3.25.22-1.3.54-1.95.86-3.24,0-.33,0-.43.11-.76.22-1.73.43-2.7.76-4.44.43-3.03.98-5.08.98-7.68,0-.54.22-.98.33-1.51-.22-.21-.43-.65-.76-.76-.86-.43-1.84-.54-2.81-1.08-.54-.33-.98-.43-1.19-.98-.65-1.3-.65-2.17-.86-3.57-.11-.33-.11-.54-.11-.76s0-.43.11-.76c0-.21.11-.43.43-.54,2.38-.54,4.32.11,6.27-.98.11-.22.43-.43.43-.65.43-1.41.65-2.6.98-4.32s.43-2.6.65-4.32v-.76c0-2.7.22-4.87.22-7.03v-1.41c-.43-.98-1.19-1.19-1.84-2.05-.54-.76-.76-1.3-1.19-2.17-.33-.65-.54-.97-.86-1.62-.11-.22-.33-.33-.33-.54v-.11c.43-1.08.54-2.27,1.73-2.6,2.17-.54,3.46-.65,4.98-.65s3.24.11,6.16.11c1.51,0,3.03,0,4.44-.54.33-.11.65-.11,1.08-.11h4.98c.86,0,1.62,0,2.48-.11,2.48-.22,3.03-.33,3.89-.33h1.19c1.19.11,2.27.54,2.81,1.08.98.98,1.41,1.51,1.95,2.7.54.97.76,1.51.76,2.6h-.01Z"/>
      <path class="st0" d="M511.17,120.19v2.62c0,1.02,0,1.59-.11,2.73s-.35,1.82-.46,3.07c-.11.23-.11.46-.11.8-.23,1.59-.34,2.5-.68,4.21-.34,1.59-.57,2.5-.91,4.21-.68,3.07-1.25,5.35-1.82,7.97-.56,2.73-1.25,5.35-1.93,7.97-.11.23-.23.57-.23.8,0,2.62-.34,4.66-1.02,7.62-.91,3.87-2.73,5.69-4.78,5.8h-.11c-2.16,0-4.44-1.71-6.48-4.66-.68-1.02-.56-1.71-.91-2.73,0-.34,0-.8.11-1.14.23-.68.46-1.25.46-1.93-.11-.45-.11-.8-.11-1.14,0-2.16.8-4.21,1.25-6.15.8-1.59.68-3.3,1.25-4.89.35-1.14.35-2.27.8-3.41.35-1.02.23-2.05.68-3.07.11-.23.11-.57.11-.8v-.8c0-.23-.11-.45-.23-.68-.34.11-.68.34-1.02.57-1.59,1.48-3.19,3.07-5.01,4.32-1.02.8-2.05,1.71-2.73,2.73-.23.68-.11,1.37-.68,1.82-1.59,1.02-2.84,1.25-4.66,1.93-.8.23-1.14.34-1.93.45-1.02.11-1.71.34-2.5.34-.35,0-.68,0-1.02-.11-1.14-.45-1.37-1.36-2.16-2.16-.34-.46-.23-.91-.68-1.14-2.73-1.71-4.66-1.82-7.39-3.75-1.71-1.25-2.84-2.73-4.44-4.55-1.02-1.25-1.48-1.93-2.16-3.19-1.02-1.82-1.48-2.73-2.16-4.55-.57-1.48-.68-2.39-1.02-3.87-.23-.8-.11-1.25-.23-1.93-.11-.45-.11-.8-.11-1.14-.34-2.96-.68-4.89-.8-7.39,0-2.62,0-5.23.11-7.85,0-1.59,0-3.18.46-4.66.46-1.37.46-2.84,1.14-4.1,1.14-4.55,3.41-8.53,5.69-12.52.68-1.37,1.71-2.62,2.73-3.75,2.27-2.73,4.21-5.01,7.51-7.51,1.48-1.25,2.73-1.48,4.66-1.82.11-.11.23-.11.34-.11.46,0,.8.23,1.14.57,2.05,1.82,3.87,2.62,4.78,5.35,0,.11.11.34.11.57,0,1.14-1.25,1.93-1.93,3.19-.91,1.48-1.71,2.62-2.73,3.75-.23.8-.45,1.59-.8,2.27-.23.68-.68,1.37-1.14,2.05-1.48,2.28-2.96,4.55-4.21,7.06-1.93,3.75-3.08,7.73-4.21,11.72-.35,1.48-.46,3.07-.8,4.66-.11.68-.11,1.37-.11,2.16v2.5c0,.34,0,.68.11,1.14.23,2.39.34,3.75.68,6.26.23,1.71.34,2.73.91,4.55.46,1.59.46,2.84,1.71,3.98,1.48,1.25,3.08,1.25,4.78,1.59h.57c.8,0,1.59-.34,2.39-.68.34-.23.68-.45.91-.68,2.62-2.62,5.35-5.01,7.74-7.85,1.37-1.59,2.73-3.18,4.09-4.78.35-.57.68-1.14,1.02-1.71.23-.57.46-1.14.8-1.71-.11-.11-.11-.34-.11-.57,0-.57.23-1.59.23-2.16,0-.23-.11-.45-.23-.45v.11c-.68.11-1.48.11-2.05.11s-1.02,0-1.25-.11c-.91-.34-1.59-.45-2.16-.45-.68,0-1.25.11-1.93.11h-.57c-.91-.11-1.93-.23-2.96-.34-.46-.34-.91-.57-1.25-.91-.57-.45-.91-1.02-.91-1.71v-3.53c0-1.14.68-1.93,1.71-2.39.35-.23.68-.34,1.25-.57.57-.11,1.37-.11,2.16-.11,1.02-.11,2.05-.23,3.07-.57,1.59-.46,3.3-.57,5.01-.91.57-.11,1.25-.23,1.93-.23s1.25.11,1.93.11c1.37,0,2.5-.34,3.75-.34.8,0,1.48.11,2.39.45,2.16.68,3.41,1.59,4.89,3.41.91,1.02.68,2.16,1.14,3.64.34,1.14.46,1.82.68,3.07.23,1.14.57,1.82.68,3.07.11,1.14.11,1.93.11,2.84h-.01Z"/>
      <path class="st0" d="M567.37,92.44c.11.23.23.45.23.68,0,.68-.57,1.37-.8,2.27v.23c-.23,1.02-.46,1.71-.68,2.73-.11.57-.11.91-.23,1.48-.11,1.02-.23,1.71-.45,2.73-.11.57-.11.91-.23,1.48-.23,1.37-.35,2.16-.57,3.53-.11.8-.11,1.14-.23,1.93v.11c0,.23.11.34.11.57v.11c-.11.34-.11.45-.23.8-.23,1.82-.45,2.73-.8,4.55-.34,2.05-.57,3.3-1.02,5.35-.11.8-.23,1.14-.46,1.93-.23,1.48-.34,2.39-.68,3.87-.23,1.25-.45,2.05-.91,3.3-.34,1.37-.46,2.16-1.02,3.41-.46,1.25-.68,2.05-1.48,3.19-1.59,2.39-2.62,4.21-4.44,5.91-1.82,1.82-3.3,3.3-5.8,4.89-.34.23-.68.34-1.14.34h-1.14c-.34,0-.56-.11-.8-.11h-.23c-1.82.23-3.07.8-4.78.8h-.8c-2.16-.23-3.41-1.02-5.35-2.05-1.25-.68-1.93-1.37-2.96-2.5-1.14-1.48-1.82-2.5-2.5-4.32-.8-2.39-.8-3.98-1.25-6.48-.23-1.48-.35-2.39-.57-3.87,0-.34-.11-.45-.11-.8-.11-5.23-.23-8.88-.23-13.31v-3.19c.11-2.62.68-5.12,1.37-7.73.23-.68.35-1.48.46-2.28.68-1.14,1.59-2.16,2.84-2.62.91-.23,3.53-.57,4.55-.91h.68c.11,0,.35,0,.46.11,1.02.91,1.59,1.48,2.16,2.73.11.34.23.57.23.91s-.11.68-.11,1.02c0,.91-.11,1.93-.46,2.96-.23.68-.34,1.25-.34,1.93-.11,1.59-.11,3.19-.11,4.66v1.02c0,1.93,0,3.75.11,6.15.11,1.25.23,1.82.34,3.07.11.8.23,1.14.23,1.93.11,1.71,0,2.62.11,4.32.11,1.25.34,1.82.45,3.07.23,1.48.11,2.27.46,3.75.46,1.93,1.14,2.27,1.93,2.27.34,0,.8-.11,1.14-.11,2.62-.34,5.57-4.21,6.48-6.15,1.14-2.27,1.02-5.57,1.14-6.48.23-1.25.34-1.82.56-3.07.23-1.25.23-1.82.46-3.07.11-.45.23-.8.23-1.25.35-1.93.46-3.07.68-5.01.11-.91.11-1.37.23-2.27.23-1.37.23-2.16.45-3.53.11-.34.23-.45.23-.8.11-1.59.11-2.62.23-4.21.23-1.48.45-2.39.68-3.87.11-.57.23-1.02.34-1.59.23-1.02.23-1.71.57-2.73s.46-1.71,1.14-2.39c1.14-1.14.56-1.48,1.93-2.28.91-.45,3.53-1.36,4.89-1.36.34,0,.57,0,.68.11,2.16.91,3.07,2.05,4.1,4.09v.02h0Z"/>
      <path class="st0" d="M619.25,89.81c0,.78-.52,1.3-.52,1.94,0,.9-.13,1.81-.13,2.72-1.16,2.58-2.2,5.18-3.36,7.76-.52,1.3-1.04,2.46-1.42,3.75-.13,1.04-.78,1.94-1.42,2.72-.64.9-1.16,1.81-1.42,2.72-1.04,2.72-2.07,5.3-3.1,7.89-1.16,3.1-2.33,6.08-3.36,9.18-1.04,2.98-1.94,5.95-2.98,8.8-.39,1.3-1.04,2.46-1.55,3.75-.64,1.16-1.16,2.33-1.16,3.75,0,.78-.26,1.42-.39,2.2-.64,1.94-1.42,3.88-1.42,6.08,0,.39-.26.78-.39,1.16-.52,1.42-.64,2.98-1.04,4.4-.39,1.42-.39,2.84-.9,4.27-.26.78-.26,1.55-.26,2.33v2.98c-.64,1.42-1.04,2.46-1.94,3.1-.26.26-.78.26-1.16.39-.64-.52-1.16-.9-1.81-1.3-.39.13-.78.39-1.3.52-.52.13-1.16.13-1.68.13-1.42-.13-2.84-.9-4.26-2.33-.39-1.16-.39-2.2-.39-3.36v-1.81c.13-1.68.26-3.24.78-4.92.39-1.42.26-3.1,1.04-4.66.52-1.42,0-2.98.78-4.4,1.04-5.04,2.58-9.96,4.01-15,.52-1.42,1.04-2.72,1.42-4.01,0-1.04-.26-1.68-1.04-2.07-1.55-.78-2.72-2.07-3.62-3.62-2.2-3.36-2.33-3.36-5.04-9.18v-.26c0-1.55-.91-3.1-1.04-4.78-.64-1.68-.64-3.49-1.29-5.18-.13-.52-.26-1.16-.26-1.68-.26-1.81-.13-3.62-.78-5.3-.13-1.68-.26-3.36-.26-4.92,0-1.04,0-2.2.13-3.24.26-.39.64-.9,1.04-1.42.52-.64,1.42-1.04,2.33-1.16,1.04,0,2.07.13,3.24.39.9.78,1.94,1.68,2.84,2.58.39.26.52.64.78.9.39.9.39,1.55.39,2.33.13,1.04.13,2.07.52,3.1.13.64.26,1.42.26,2.2,0,2.2.39,4.4.9,6.6.78,2.58,1.16,5.18,2.2,7.5.39.13.64.26,1.04.26.9-.39,1.55-1.3,2.07-2.2,1.68-3.1,3.62-6.08,5.56-9.05.39-.64.64-1.3.9-2.07,1.42-3.1,3.1-6.08,4.27-9.31.64-1.3,1.29-2.58,1.94-4.01.26-.52.64-.9,1.04-1.3,1.04-.52,1.94-1.3,2.98-1.3.26,0,.52,0,.78.13,1.29.39,1.81,1.55,2.97,2.33.39.13.9.26,1.68.39.78.64,1.81,1.3,2.72,1.94.13.26.13.39.13.64l-.02.03h0Z"/>
    </g>
    <g>
      <path class="st0" d="M239.37,47.22c.41-.07.33-.48.58-.66.31-.19.81-.15,1.06-.33.43-.35.57-.73,1.11-.82.61-.11,1.2.07,2.03.06.17-.66.34-1.24.61-1.3.81-.15,1.43-.6,3.06-.89,2.03-.36,3.51,1.68,4.4,3.97,2.28,5.81,3.79,10.78,6.01,16.66.2.73,1.12,3.16,2.22,6.24,1.74-10.7,2.38-16.19,3.49-20.99.67-2.91,2.17-9.03,3.53-9.27.54-.09,1.03.31,2,.27l.56.04.4-.91c.33-.9,1.26-1.2,2-1.33.74-.13,3.25-.15,4.07.54.65.51,1.3,4.17,1.74,5.91,1.57,6.15,3.02,12.38,4.72,18.49,1.51,5.39,3.71,11.97,4.49,16.37.19,1.08.31,2.11.01,2.86-.35.83-2.05,3.02-2.73,3.14-1.22.21-1.68-.82-2.36-.7-.47.09-.88.92-1.69,1.07-.61.11-1.89-.01-2.31-.85-.41-.76-1.31-3.47-2.15-6.25-1.36-4.58-2.69-8.52-5.34-20.41l-1.67,9.09c-1.07,5.42-2.58,14.62-2.96,16.43-.33,1.67-.84,3.92-2.47,4.21-.54.09-1.21-.13-1.48-.5s-.44-.9-.9-1.17l-.45-.2-.21.03c-.34.06-2.33.27-2.82-.2-1.11-1.13-1.81-2.75-2.46-4.45-2.52-6.74-5.1-14.24-7.65-21.6.21,8.34.24,16,1.08,22.77.16,1.3.78,6.01.86,6.48.19,1.08.16,1.71-.45,2.24-.48.43-1.04.46-1.66.85-.88.57-1.32,1.21-2.47,1.42-1.22.21-1.31-.68-1.61-1.18-.29-.44-.9-.33-1.45-.31-2.09.02-2.64-.72-3.13-3.49-.62-3.52-.42-5.16-.65-7.63-.98-9.53-2.03-20.99.29-33.19.09-.29.28-.4.75-.48h0Z"/>
      <path class="st0" d="M297.8,56.94c1.37-2.54,5.19-8.94,7.69-9.38.74-.13,1.78,1.01,2.05,1.73.14.39.13.74.21,1.22.11.61,1.49.57,1.67,1.17.15.46.57.88.63,1.22.12.68-.68,2.49-1.08,2.98-2.6,3.04-4.19,3.53-8.78,8.8.25,1,.45,2.15.65,3.3.76,4.33.73,6.92,1.51,11.39.17.95-.29,1.17-.37,1.46-.13.45-.99.73-1.81,1.64-.11.16-.55.45-.96.52-.68.12-1.28-.54-1.48-.5-1.18.07-2.23.05-2.9-.6-.83-.76-1.19-2.79-1.59-3.91-.31-.92-.55-1.93-1.26-5.92-.78-4.4-2.16-11.83-1.52-16.13.18-1.36.72-2.22,1.38-2.9.47-.5.5-1.14.84-1.2.61-.11,1.22-.21,1.58-.14.58.11.92.88,1.22,1.39.39.63.38.56.7.43.26-.11.66.58,1.29,2.56.05.27.17.53.29.86h.01Z"/>
    </g>
  </g>
  <g>
    <path class="st0" d="M93.77,254.19v162.02h-18.6v-72.1h-7.54v72.1h-18.6v-162.02h18.6v72.1h7.54v-72.1h18.6Z"/>
    <path class="st0" d="M120.18,272.02v54.27h14.57v17.83h-14.57v54.27h19.09v17.83h-37.7v-162.02h37.7v17.83h-19.09Z"/>
    <path class="st0" d="M191.85,346.63v69.58h-18.6v-66.07c0-3.1-2.52-5.62-5.62-5.62h-2.1v71.69h-18.6v-162.02h30.25c8.11,0,14.68,6.57,14.68,14.68v55.39c0,6.27-5.08,11.35-11.35,11.35h.32c6.09,0,11.03,4.94,11.03,11.03ZM169.59,272.02h-4.06v54.67h3.32c2.43,0,4.4-1.97,4.4-4.4v-46.61c0-2.02-1.64-3.67-3.66-3.66Z"/>
    <path class="st0" d="M233.15,334.08c6.23,0,11.28,5.05,11.28,11.28v54.74c0,8.9-7.22,16.12-16.12,16.12h-28.6v-162.02h26.12v-.02h2.47c8.91,0,16.13,7.22,16.13,16.13v52.5c0,6.23-5.05,11.28-11.27,11.28ZM218.31,272.03v53.14h1.66c3.24,0,5.86-2.62,5.86-5.86v-43.62c0-2.02-1.64-3.66-3.66-3.66h-3.86ZM225.83,348.87c0-3.25-2.63-5.87-5.87-5.87h-1.64v55.4h3.85c2.02,0,3.67-1.64,3.67-3.67v-45.86Z"/>
    <path class="st0" d="M270.87,272.02v54.27h14.57v17.83h-14.57v54.27h19.09v17.83h-37.7v-162.02h37.7v17.83h-19.09Z"/>
    <path class="st0" d="M321.58,317.86v-43.46c0-2.02-1.64-3.67-3.67-3.67h-.33c-2.02,0-3.67,1.64-3.67,3.67v41.16c0,2.84,1.16,4.49,2.02,5.33l.91.71,15.93,12.29s7.42,4.81,7.42,16.24v48.71c0,10.31-8.36,18.67-18.67,18.67h-7.54c-10.31,0-18.67-8.36-18.67-18.67v-48.71h18.6v45.88c0,2.03,1.64,3.67,3.67,3.67h.33c2.02,0,3.67-1.64,3.67-3.67v-43.99c-.01-.62-.19-3-2.23-4.57l-17.64-13.61c-7.24-5.58-6.4-13.55-6.4-13.55v-48.71c0-10.31,8.36-18.67,18.67-18.67h7.54c10.31,0,18.67,8.36,18.67,18.67v46.29h-18.6Z"/>
    <path class="st0" d="M438.44,254.79v162.02h-18.61v-81.01l-10.41,81.01h-4.68l-10.41-81.01v81.01h-18.6v-162.02h20.14l11.21,81.01,11.21-81.01h20.14Z"/>
    <path class="st0" d="M475.83,346.48v69.74h-18.6v-69.74l-14.75-92.29h19.09l5.23,62.44,5.23-62.44h19.09l-15.28,92.29Z"/>
    <path class="st0" d="M538.83,272.02h-12.6v144.2h-18.61v-144.2h-12.59v-17.83h43.8v17.83Z"/>
    <path class="st0" d="M589.54,254.19v162.02h-18.6v-72.1h-7.54v72.1h-18.6v-162.02h18.6v72.1h7.54v-72.1h18.6Z"/>
    <path class="st0" d="M596.19,416.21v-162.02h18.6v162.02h-18.6Z"/>
    <path class="st0" d="M658.06,412.38l4.08,5.32-13.91,4.83-3.67-5.03h-4.81c-10.31,0-18.67-8.36-18.67-18.67v-127.26c0-10.31,8.36-18.67,18.67-18.67h7.54c10.31,0,18.67,8.36,18.67,18.67v127.26c0,5.95-3.56,10.13-7.89,13.55ZM646.73,398.03c.38-.58.61-1.27.61-2.02v-121.6c0-2.02-1.64-3.67-3.67-3.67h-.33c-2.02,0-3.67,1.64-3.67,3.67v121.6c0,.15.01.3.03.44l4.3-1.91,2.73,3.49Z"/>
    <path class="st0" d="M718.5,254.19v144.56c0,10.31-8.36,18.67-18.67,18.67h-7.54c-10.31,0-18.67-8.36-18.67-18.67v-144.56h18.6v141.73c0,2.02,1.64,3.67,3.67,3.67h.33c2.02,0,3.67-1.64,3.67-3.67v-141.73h18.6Z"/>
    <path class="st0" d="M744.79,272.02v54.27h14.57v17.83h-14.57v54.27h19.09v17.83h-37.69v-162.02h37.69v17.83h-19.09Z"/>
    <path class="st0" d="M795.5,317.86v-43.46c0-2.02-1.64-3.67-3.67-3.67h-.33c-2.02,0-3.67,1.64-3.67,3.67v41.16c0,2.84,1.16,4.49,2.02,5.33l.91.71,15.93,12.29s7.42,4.81,7.42,16.24v48.71c0,10.31-8.36,18.67-18.67,18.67h-7.54c-10.31,0-18.67-8.36-18.67-18.67v-48.71h18.61v45.88c0,2.03,1.64,3.67,3.67,3.67h.33c2.03,0,3.67-1.64,3.67-3.67v-43.99c-.01-.62-.19-3-2.23-4.57l-17.64-13.61c-7.24-5.58-6.4-13.55-6.4-13.55v-48.71c0-10.31,8.36-18.67,18.67-18.67h7.54c10.31,0,18.67,8.36,18.67,18.67v46.29h-18.61Z"/>
  </g>
  <path class="st0" d="M825.23,241.26h-1.82v4.09h-2.29v-11.14h4.13c1.08-.07,2.16.24,3.04.87.74.63,1.14,1.57,1.06,2.53.02.67-.15,1.33-.49,1.9-.36.56-.88,1.01-1.5,1.27l2.41,4.55v.13h-2.46l-2.08-4.09M823.41,239.52h1.85c.48.03.96-.13,1.33-.44.34-.33.51-.8.47-1.27.04-.47-.12-.93-.44-1.27-.38-.33-.87-.49-1.37-.44h-1.84v3.42Z"/>
  <path class="st0" d="M824.99,228.94c-6.01,0-10.89,4.87-10.89,10.89s4.87,10.89,10.89,10.89,10.89-4.87,10.89-10.89-4.87-10.89-10.89-10.89M824.99,248.54c-4.81,0-8.71-3.9-8.71-8.71s3.9-8.71,8.71-8.71,8.71,3.9,8.71,8.71-3.9,8.71-8.71,8.71"/>
</svg>